<svg xmlns="http://www.w3.org/2000/svg" viewBox="0 0 26 26" width="208" height="208"><path d="M8 0a3 3 0 00-3 3v20a3 3 0 003 3h11a3 3 0 003-3V3a3 3 0 00-3-3zm3.5 1h4c.277 0 .5.223.5.5s-.223.5-.5.5h-4a.498.498 0 01-.5-.5c0-.277.223-.5.5-.5zm-4 2h12c.277 0 .5.223.5.5v17c0 .277-.223.5-.5.5h-12a.498.498 0 01-.5-.5v-17c0-.277.223-.5.5-.5zm4.156 3.719c-.039.027-.062.11-.031.156l.531.75c-.836.387-1.426 1.137-1.5 2h5.688c-.074-.863-.664-1.61-1.5-2l.531-.75c.031-.047.04-.129 0-.156-.04-.028-.125-.016-.156.031l-.531.813a3.29 3.29 0 00-1.188-.22c-.422 0-.828.079-1.188.22l-.53-.813c-.032-.047-.087-.059-.126-.031zm.656 1.468a.31.31 0 01.313.313c0 .176-.14.344-.313.344a.367.367 0 01-.343-.344c0-.172.172-.313.344-.313zm2.438 0c.176 0 .313.137.313.313s-.137.344-.313.344c-.172 0-.313-.168-.313-.344a.31.31 0 01.313-.313zM9.625 10c-.352 0-.625.297-.625.656v2.531c0 .36.273.657.625.657a.663.663 0 00.656-.656v-2.532c0-.36-.3-.656-.656-.656zm7.719 0c-.356 0-.625.297-.625.656v2.531c0 .36.27.657.625.657a.663.663 0 00.656-.656v-2.532c0-.36-.3-.656-.656-.656zm-6.688.031v4.625c0 .278.227.5.5.5h.563v1.438c0 .36.3.625.656.625a.61.61 0 00.625-.625v-1.438h1v1.438c0 .36.305.625.656.625a.61.61 0 00.625-.625v-1.438h.594c.277 0 .5-.222.5-.5v-4.625zM8.5 23h2c.277 0 .5.223.5.5s-.223.5-.5.5h-2a.498.498 0 01-.5-.5c0-.277.223-.5.5-.5zm4 0h2c.277 0 .5.223.5.5v1c0 .277-.223.5-.5.5h-2a.498.498 0 01-.5-.5v-1c0-.277.223-.5.5-.5zm4 0h2c.277 0 .5.223.5.5s-.223.5-.5.5h-2a.498.498 0 01-.5-.5c0-.277.223-.5.5-.5z" fill="#5B5B5B"/></svg>
