<?xml version="1.0" encoding="utf-8"?>
<svg xmlns="http://www.w3.org/2000/svg" viewBox="0 0 48 48" width="144" height="144">
  <path fill="currentColor" d="M11.5 6C8.467 6 6 8.467 6 11.5L6 36.5C6 39.533 8.467 42 11.5 42L36.5 42C39.533 42 42 39.533 42 36.5L42 11.5C42 8.467 39.533 6 36.5 6L11.5 6 z M 11.5 9L36.5 9C37.878 9 39 10.122 39 11.5L39 36.5C39 37.878 37.878 39 36.5 39L11.5 39C10.122 39 9 37.878 9 36.5L9 11.5C9 10.122 10.122 9 11.5 9 z M 18.167969 13.074219L25.197266 24L18.167969 34.925781L24.644531 34.925781L31.753906 24L24.644531 13.074219L18.167969 13.074219 z" />
</svg>
